<?xml version="1.0" encoding="UTF-8"?>
<svg version="1.1" xmlns="http://www.w3.org/2000/svg" width="860" height="144">
<path d="M0 0 C7.71467728 4.87238993 12.24476159 11.82183965 16.046875 19.94140625 C16.45099609 20.77759995 16.85511719 21.61379364 17.27148438 22.47532654 C18.56807365 25.16544095 19.84665372 27.86367592 21.125 30.5625 C22.02392393 32.43609482 22.92399616 34.30913913 23.82519531 36.18164062 C25.98674462 40.67964614 28.13479216 45.18391057 30.27685547 49.69122314 C31.69906657 52.68132871 33.12999604 55.66715608 34.5625 58.65234375 C36.2452974 62.16137287 37.92158172 65.67339517 39.59375 69.1875 C41.82433497 73.86366608 44.08068108 78.52700022 46.34375 83.1875 C46.69584534 83.91267822 47.04794067 84.63785645 47.41070557 85.38500977 C49.14925254 88.9645977 50.88951581 92.54334095 52.63183594 96.12109375 C52.95444397 96.78592773 53.277052 97.45076172 53.60943604 98.13574219 C54.25192597 99.45513176 54.89914285 100.77223062 55.5512085 102.08691406 C57.20462405 105.44721983 58.71775461 108.80512936 60.06445312 112.30078125 C62.53934718 119.50062585 62.53934718 119.50062585 68.03613281 124.15625 C70.61054697 124.41704187 72.82479205 124.40536505 75.375 124 C75.06908936 123.39341553 74.76317871 122.78683105 74.44799805 122.16186523 C68.47086673 110.29551796 62.56853804 98.40092151 56.86279297 86.40161133 C51.9709003 76.12349639 46.99442435 65.88692821 42.00976562 55.65356445 C38.66697958 48.78882148 35.33072403 41.92147618 32.03681946 35.03311157 C30.60040433 32.02948967 29.1593029 29.02812576 27.71810913 26.02679443 C27.04087394 24.61280453 26.36601524 23.19767349 25.6937561 21.78131104 C22.35812411 14.75512307 19.01183827 7.96772644 14.43041992 1.64111328 C13.375 -0 13.375 -0 13.375 -2 C21.18262899 -2.54366469 28.51773556 -2.10202175 35.375 2 C40.92411538 7.22380652 44.01222158 13.68213544 47.26171875 20.46875 C47.80423782 21.58068726 48.3467569 22.69262451 48.90571594 23.83825684 C50.63444219 27.38750669 52.34859691 30.94357252 54.0625 34.5 C55.19372201 36.82727979 56.32587585 39.15410689 57.45898438 41.48046875 C63.1762726 53.2356703 68.82707908 65.02235655 74.4564209 76.81987 C77.38159693 82.94334182 80.33881488 89.05020666 83.32421875 95.14453125 C83.71878769 95.95038666 84.11335663 96.75624207 84.5198822 97.58651733 C86.09721672 100.80633243 87.67545694 104.02568896 89.25805664 107.24291992 C90.44979554 109.66698928 91.6372568 112.09311994 92.82421875 114.51953125 C93.16402267 115.20755325 93.5038266 115.89557526 93.85392761 116.60444641 C97.93859418 124.97122333 101.58547733 133.47357399 105.375 142 C88.215 142 71.055 142 53.375 142 C41.99749708 120.38274446 41.99749708 120.38274446 38.3125 112.5 C37.39437844 110.5593517 36.47501955 108.61928848 35.5546875 106.6796875 C35.05678711 105.63006836 34.55888672 104.58044922 34.04589844 103.49902344 C31.0785586 97.28512593 28.06058859 91.09581697 25.04690552 84.90429688 C19.63274715 73.78079511 14.2298729 62.65218868 8.875 51.5 C8.39675781 50.50734131 7.91851562 49.51468262 7.42578125 48.49194336 C5.17590215 43.81032518 2.96205324 39.11710257 0.81640625 34.38671875 C0.41292969 33.50628906 0.00945312 32.62585937 -0.40625 31.71875 C-1.14798833 30.09494447 -1.87941611 28.46636636 -2.59765625 26.83203125 C-4.60322648 22.45767728 -6.40456718 19.61747997 -10.625 17 C-14.59458321 16.51392859 -17.32517263 16.72981653 -20.625 19 C-21.99816654 21.28649498 -23.14557925 23.4638921 -24.26171875 25.87109375 C-24.60152267 26.57705185 -24.9413266 27.28300995 -25.29142761 28.01036072 C-26.02705069 29.53923949 -26.75783447 31.07045408 -27.48431396 32.60369873 C-29.01910337 35.82791441 -30.59601349 39.03077093 -32.17196655 42.23501587 C-34.2708559 46.50577709 -36.35298784 50.78470824 -38.4375 55.0625 C-38.87864136 55.96718018 -39.31978271 56.87186035 -39.77429199 57.80395508 C-45.08769835 68.70179622 -50.38043809 79.60845394 -55.59155273 90.55566406 C-59.69005206 99.15953746 -63.84314361 107.73671531 -68 116.3125 C-68.34365601 117.02204834 -68.68731201 117.73159668 -69.04138184 118.46264648 C-72.85391835 126.33318733 -76.69262364 134.1883875 -80.625 142 C-87.555 142 -94.485 142 -101.625 142 C-96.46530074 130.23226484 -91.0302088 118.6597434 -85.25 107.1875 C-80.43895074 97.63649927 -75.69511596 88.0627909 -71.11206055 78.3996582 C-65.68218506 66.9721352 -60.112244 55.6126331 -54.55517578 44.24658203 C-51.11093594 37.19636005 -47.6708151 30.1470917 -44.35546875 23.03515625 C-43.90179932 22.06336426 -43.44812988 21.09157227 -42.98071289 20.09033203 C-42.19701536 18.40105264 -41.42063946 16.70834316 -40.65405273 15.01123047 C-37.26971811 7.71181212 -33.24201851 2.3690744 -25.765625 -1.078125 C-17.58186967 -3.48032184 -7.84682127 -3.52747011 0 0 Z " fill="#6B46FC" transform="translate(101.625,2)"/>
<path d="M0 0 C5.77939604 2.22284463 8.99557339 5.04763403 11.82763672 10.55249023 C12.4544737 11.96702541 13.07127824 13.3860353 13.6796875 14.80859375 C14.01493439 15.57115982 14.35018127 16.33372589 14.69558716 17.11940002 C15.76423226 19.55501243 16.8199703 21.9959633 17.875 24.4375 C18.92260914 26.83857366 19.97286163 29.23847921 21.02325439 31.63833618 C21.7069883 33.20128659 22.38957842 34.76473789 23.07098389 36.32870483 C25.95187705 42.93105254 28.94311637 49.47704931 32 56 C34.76739806 53.23260194 35.94855925 49.89143993 37.484375 46.3515625 C37.82245178 45.58379486 38.16052856 44.81602722 38.5088501 44.0249939 C39.59365583 41.56024367 40.67232157 39.09287398 41.75 36.625 C55.50404816 5.18628008 55.50404816 5.18628008 62 1 C67.09407863 -0.69802621 71.90186248 -0.8718259 76.75 1.5 C80.64938882 4.17723667 82.59629892 7.53812151 84 12 C84.52767875 16.64319938 84.46643899 21.23832728 84.390625 25.90625 C84.38315092 27.24002224 84.37746351 28.57380556 84.37347412 29.90759277 C84.35830909 33.39305734 84.31910919 36.87783945 84.2746582 40.36303711 C84.23350594 43.92943087 84.21542086 47.4959365 84.1953125 51.0625 C84.15260345 58.04197276 84.08233078 65.02088321 84 72 C80.04 72 76.08 72 72 72 C71.67 52.53 71.34 33.06 71 13 C69.35 12.67 67.7 12.34 66 12 C65.74565186 12.82113281 65.49130371 13.64226563 65.22924805 14.48828125 C63.82095164 18.51150578 62.1194551 22.32157338 60.33203125 26.1875 C59.79517952 27.35684082 59.79517952 27.35684082 59.2474823 28.54980469 C58.48998342 30.19779726 57.73094398 31.84508249 56.97045898 33.49169922 C55.829737 35.96266225 54.69475364 38.43619708 53.56054688 40.91015625 C51.39735526 45.61798366 49.2061638 50.31217524 47 55 C46.6686908 55.70833984 46.33738159 56.41667969 45.99603271 57.14648438 C45.07561405 59.10360102 44.14047412 61.05283529 43.19921875 63 C42.67545654 64.093125 42.15169434 65.18625 41.61206055 66.3125 C39.98077544 69.03204968 38.70513555 70.39255608 36 72 C32.71804331 72.5967194 30.12497256 72.11174408 27 71 C20.28995169 64.27338094 16.83013524 53.36293558 13 44.8125 C12.30798596 43.28549246 11.6152815 41.75879761 10.921875 40.23242188 C5.47815183 28.20957504 5.47815183 28.20957504 3.26953125 22.80224609 C3.00092285 22.15035812 2.73231445 21.49847015 2.45556641 20.826828 C1.73545603 19.06645169 1.02932916 17.30037349 0.32421875 15.53393555 C-0.79204588 12.68357974 -0.79204588 12.68357974 -4 12 C-4.99 12.495 -4.99 12.495 -6 13 C-6.33 32.47 -6.66 51.94 -7 72 C-10.96 72 -14.92 72 -19 72 C-19.06794991 64.42828922 -19.12291616 56.85669307 -19.15543652 49.28475094 C-19.17104978 45.76825002 -19.19220765 42.2519697 -19.22631836 38.7355957 C-19.26534335 34.68699095 -19.27974501 30.63861561 -19.29296875 26.58984375 C-19.30845261 25.33541977 -19.32393646 24.08099579 -19.33988953 22.78855896 C-19.34238354 9.79313755 -19.34238354 9.79313755 -14.46484375 4.2578125 C-9.44918269 0.53775698 -6.28449226 -0.65658874 0 0 Z " fill="#000000" transform="translate(776,35)"/>
<path d="M0 0 C7.29368633 -0.06801209 14.58719684 -0.12295142 21.88113403 -0.15543652 C25.26869572 -0.1710346 28.65602758 -0.19216406 32.04345703 -0.22631836 C35.94569903 -0.26283475 39.84761791 -0.2797575 43.75 -0.29296875 C44.95551514 -0.30845261 46.16103027 -0.32393646 47.40307617 -0.33988953 C54.86674132 -0.3413723 61.15691165 -0.01956941 67.2421875 4.76171875 C72.30347667 10.73113397 74.32710325 15.58702196 74 23.4375 C72.87277079 31.1939105 67.94214929 36.34426411 62 41 C62.36351562 41.90355225 62.72703125 42.80710449 63.1015625 43.73803711 C64.44509311 47.07881359 65.78636931 50.42049124 67.12695312 53.76245117 C67.70836551 55.21094192 68.29039555 56.6591849 68.87304688 58.10717773 C69.70864345 60.18408996 70.54204147 62.26187236 71.375 64.33984375 C71.63748535 64.99089584 71.8999707 65.64194794 72.17041016 66.31272888 C74 70.88612829 74 70.88612829 74 72 C69.71 72 65.42 72 61 72 C59.42909098 68.05069826 57.86262833 64.09967146 56.30029297 60.14697266 C55.7679894 58.80208609 55.23446596 57.45768168 54.69970703 56.11376953 C53.93201919 54.18386783 53.1687107 52.25228427 52.40625 50.3203125 C51.94541016 49.15773926 51.48457031 47.99516602 51.00976562 46.79736328 C50 44 50 44 50 42 C45.35505142 42.11828208 40.71031535 42.24253274 36.06567383 42.37231445 C34.48563985 42.41562305 32.90556031 42.45730106 31.32543945 42.49731445 C29.05405952 42.55511583 26.78290811 42.6187816 24.51171875 42.68359375 C23.80536789 42.70030624 23.09901703 42.71701874 22.3712616 42.73423767 C19.3335176 42.8259747 16.90376942 43.03207686 14 44 C11.33803458 49.4506911 11.55905019 55.43171267 11.375 61.375 C11.31699219 62.90833984 11.31699219 62.90833984 11.2578125 64.47265625 C11.16402434 66.98148965 11.08094454 69.49071938 11 72 C7.37 72 3.74 72 0 72 C-0.08137712 68.16623358 -0.14068689 64.33421671 -0.1875 60.5 C-0.21263672 59.42234375 -0.23777344 58.3446875 -0.26367188 57.234375 C-0.33563233 49.36669872 0.42346833 43.12840369 5.3125 36.6875 C11.76741833 30.23258167 18.71039218 29.87100841 27.40625 29.859375 C29.05339935 29.8410568 30.70053518 29.82148741 32.34765625 29.80078125 C34.92845768 29.77177243 37.50838009 29.74999842 40.08935547 29.74951172 C42.59160197 29.74617475 45.09185109 29.71163254 47.59375 29.671875 C48.36158813 29.6789447 49.12942627 29.6860144 49.92053223 29.69329834 C53.90907864 29.60289661 55.80843199 29.14775789 59.00195312 26.68457031 C61.57584475 23.22629656 61.46897142 21.22074279 61 17 C60.33471029 13.83296462 60.33471029 13.83296462 57.71240234 12.83837891 C52.34395576 11.62601237 47.09019202 11.64105783 41.6015625 11.5859375 C40.41146576 11.56657135 39.22136902 11.5472052 37.99520874 11.5272522 C34.20521139 11.46761497 30.41518341 11.42113384 26.625 11.375 C24.05076822 11.33680569 21.47654903 11.29775311 18.90234375 11.2578125 C12.60166504 11.16192619 6.30092651 11.07783609 0 11 C0 7.37 0 3.74 0 0 Z " fill="#000000" transform="translate(371,35)"/>
<path d="M0 0 C4.03305162 2.68870108 5.27793511 5.79164834 7.375 10.0625 C7.96474609 11.15208008 7.96474609 11.15208008 8.56640625 12.26367188 C10.04929832 15.29102012 11.23318106 17.73166003 10.60839844 21.1300354 C8.74147834 26.23189484 6.65588819 31.12937577 4.2265625 35.98828125 C3.8665062 36.72087662 3.50644989 37.45347198 3.13548279 38.20826721 C2.36733013 39.7704297 1.59678336 41.33141692 0.82400513 42.89129639 C-1.222604 47.02410392 -3.24986108 51.16637776 -5.27734375 55.30859375 C-5.68302078 56.13667542 -6.08869781 56.96475708 -6.50666809 57.81793213 C-10.07952437 65.12714912 -13.53383069 72.4855238 -16.9375 79.875 C-20.99165063 88.67025102 -25.07921922 97.44683375 -29.25 106.1875 C-29.71656006 107.16895996 -30.18312012 108.15041992 -30.66381836 109.16162109 C-31.08928955 110.05059082 -31.51476074 110.93956055 -31.953125 111.85546875 C-32.51241699 113.02565552 -32.51241699 113.02565552 -33.08300781 114.21948242 C-34 116 -34 116 -35 117 C-36.56172745 117.08685603 -38.12729344 117.10702219 -39.69140625 117.09765625 C-40.54162354 117.09515869 -41.39184082 117.09266113 -42.26782227 117.09008789 C-43.35506592 117.08098389 -44.44230957 117.07187988 -45.5625 117.0625 C-47.42439572 117.05101163 -49.28629371 117.03988539 -51.14819336 117.02905273 C-53.57409668 117.01452637 -53.57409668 117.01452637 -56 117 C-50.38351452 104.30165298 -44.53328728 91.74384919 -38.40316772 79.28561401 C-36.19800121 74.80320227 -34.00435175 70.31515086 -31.80859375 65.828125 C-31.16948814 64.52324379 -31.16948814 64.52324379 -30.51747131 63.19200134 C-24.23721308 50.36621729 -18.08996496 37.48020926 -12.04296875 24.54296875 C-11.69858261 23.80656662 -11.35419647 23.07016449 -10.99937439 22.31144714 C-9.28279505 18.64015246 -7.56892667 14.967638 -5.86010742 11.29272461 C-5.2375213 9.95814545 -4.61488384 8.62359024 -3.9921875 7.2890625 C-3.43901855 6.10006348 -2.88584961 4.91106445 -2.31591797 3.68603516 C-1 1 -1 1 0 0 Z " fill="#6B46FB" transform="translate(87,27)"/>
<path d="M0 0 C3.63 0 7.26 0 11 0 C11.01458252 1.38711182 11.02916504 2.77422363 11.04418945 4.20336914 C11.10232298 9.36785178 11.17955543 14.53190529 11.26245117 19.69604492 C11.29562968 21.92774471 11.32368348 24.15952698 11.34643555 26.39135742 C11.38011126 29.60631334 11.43243485 32.8205182 11.48828125 36.03515625 C11.49467117 37.02709488 11.5010611 38.01903351 11.50764465 39.04103088 C11.64142665 45.39718999 12.22106462 50.69491953 16.46484375 55.7421875 C23.21901413 60.93770318 29.90275919 60.24901165 38.10693359 60.29516602 C39.52858449 60.3066649 40.95019292 60.327084 42.37158203 60.35668945 C50.4501459 60.52471908 57.09523387 60.64330475 64 56 C67.40079919 52.37979441 68.11777587 49.02645512 68.20532227 44.16137695 C68.22526749 43.1805867 68.24521271 42.19979645 68.26576233 41.18928528 C68.28247482 40.13295395 68.29918732 39.07662262 68.31640625 37.98828125 C68.3475779 36.36323921 68.3475779 36.36323921 68.37937927 34.70536804 C68.44481797 31.24114384 68.50373353 27.7768432 68.5625 24.3125 C68.60569061 21.96548685 68.64930507 19.61848147 68.69335938 17.27148438 C68.80049361 11.51440146 68.90177727 5.75724158 69 0 C72.63 0 76.26 0 80 0 C80.09915435 7.40149056 80.17160539 14.80259122 80.21972656 22.20458984 C80.23979516 24.72060891 80.2670563 27.23658161 80.30175781 29.75244141 C80.35048312 33.37674428 80.37301722 37.00042841 80.390625 40.625 C80.41127014 41.74302002 80.43191528 42.86104004 80.45318604 44.01293945 C80.45550391 52.14899518 78.981171 57.43915686 73.75 63.6875 C66.17337451 70.05875326 60.4892961 72.14502914 50.61328125 72.23828125 C49.7968364 72.246353 48.98039154 72.25442474 48.13920593 72.26274109 C46.41191715 72.27655198 44.68460142 72.28728749 42.95727539 72.29516602 C41.20296143 72.30666387 39.44868185 72.32708091 37.69458008 72.35668945 C25.48012346 72.56269979 15.95483476 72.3505334 6.50390625 63.7109375 C1.78499767 58.34241294 -0.13129104 51.99125281 -0.11352539 44.95605469 C-0.11344986 43.95531921 -0.11337433 42.95458374 -0.11329651 41.92352295 C-0.10813522 40.85047913 -0.10297394 39.7774353 -0.09765625 38.671875 C-0.0962413 37.56773254 -0.09482635 36.46359009 -0.09336853 35.32598877 C-0.08777258 31.80063158 -0.07522079 28.27533798 -0.0625 24.75 C-0.05748448 22.35937592 -0.05292166 19.96875084 -0.04882812 17.578125 C-0.03780447 11.71872551 -0.02054257 5.85937354 0 0 Z " fill="#000000" transform="translate(640,35)"/>
<path d="M0 0 C1.14004486 0.00565979 2.28008972 0.01131958 3.4546814 0.01715088 C7.06137817 0.03936841 10.6670459 0.08953887 14.2734375 0.140625 C16.73305847 0.16070883 19.19269517 0.17895628 21.65234375 0.1953125 C27.65143232 0.23918548 33.64976102 0.30811226 39.6484375 0.390625 C39.6484375 4.020625 39.6484375 7.650625 39.6484375 11.390625 C38.23626953 11.40520752 36.82410156 11.41979004 35.36914062 11.43481445 C30.1058684 11.49299611 24.8430151 11.57022804 19.58007812 11.65307617 C17.30671004 11.68623215 15.03326148 11.71429283 12.75976562 11.73706055 C9.48272565 11.7707779 6.20641694 11.82310342 2.9296875 11.87890625 C1.41671082 11.88849113 1.41671082 11.88849113 -0.12683105 11.89826965 C-7.20852245 12.04422687 -13.60161752 12.57016861 -18.7890625 17.890625 C-22.34054381 23.5729951 -21.61099552 29.64522698 -21.6640625 36.140625 C-21.69306641 37.30851562 -21.72207031 38.47640625 -21.75195312 39.6796875 C-21.80207546 46.48090234 -21.5415619 50.92141189 -17.3515625 56.390625 C-12.93509174 59.70297807 -8.91459665 60.49604279 -3.49121094 60.59594727 C-2.05016998 60.6258651 -2.05016998 60.6258651 -0.58001709 60.65638733 C0.96392731 60.68145607 0.96392731 60.68145607 2.5390625 60.70703125 C3.59881287 60.72781235 4.65856323 60.74859344 5.75042725 60.77000427 C9.13303188 60.83534686 12.51571362 60.89431381 15.8984375 60.953125 C18.19271628 60.99632475 20.48698729 61.03993951 22.78125 61.08398438 C28.40356698 61.19101265 34.02596145 61.29232333 39.6484375 61.390625 C39.6484375 65.020625 39.6484375 68.650625 39.6484375 72.390625 C32.42598418 72.48997099 25.20393424 72.56232006 17.98095703 72.61035156 C15.52711044 72.63038824 13.07331113 72.65762532 10.61962891 72.69238281 C7.07963347 72.74124998 3.54027282 72.7636742 0 72.78125 C-1.6287355 72.81221771 -1.6287355 72.81221771 -3.29037476 72.84381104 C-13.04699535 72.84664449 -20.76159288 70.62690138 -27.78125 63.66015625 C-33.33154086 55.63846723 -33.98738626 48.12549524 -33.87304688 38.53417969 C-33.85159663 36.39402999 -33.8729257 34.25723542 -33.8984375 32.1171875 C-33.91729787 23.16494941 -32.90283986 16.52319253 -27.78125 9.12109375 C-19.75337478 1.15373016 -10.96350773 -0.20845297 0 0 Z " fill="#000000" transform="translate(515.3515625,34.609375)"/>
<path d="M0 0 C10.55708471 5.36322485 14.22158781 15.46489917 18.328125 25.859375 C18.8107782 27.06692444 19.2934314 28.27447388 19.79071045 29.51861572 C20.80681806 32.06199794 21.81829576 34.60715353 22.82617188 37.15380859 C24.11926125 40.42068447 25.42152191 43.68380644 26.72691727 46.94578171 C27.9728473 50.06127998 29.21291048 53.17909683 30.453125 56.296875 C30.92179993 57.47078796 31.39047485 58.64470093 31.87335205 59.85418701 C32.30089783 60.93581116 32.7284436 62.0174353 33.16894531 63.13183594 C33.54770813 64.08636658 33.92647095 65.04089722 34.31671143 66.02435303 C35.125 68.3125 35.125 68.3125 35.125 70.3125 C30.835 70.3125 26.545 70.3125 22.125 70.3125 C21.6717334 69.14380371 21.2184668 67.97510742 20.75146484 66.77099609 C19.04299678 62.36785343 17.33127677 57.96598063 15.61865234 53.56445312 C14.88276098 51.67188572 14.14771123 49.77899081 13.41357422 47.88574219 C11.32332488 42.49614975 9.21830048 37.11285118 7.08630371 31.73962402 C6.47133671 30.18693973 5.86005502 28.63278753 5.25354004 27.07678223 C4.48827789 25.12047557 3.70467705 23.17273343 2.9140625 21.2265625 C2.4907666 20.16646973 2.0674707 19.10637695 1.63134766 18.01416016 C-0.12112206 14.8710759 -1.89298931 13.29801972 -4.875 11.3125 C-9.05066881 10.152592 -11.38571315 10.17151904 -15.5625 11.375 C-22.40181256 15.37535263 -24.42436232 22.70007872 -27.1328125 29.78515625 C-27.52193817 30.78582626 -27.91106384 31.78649628 -28.3119812 32.81748962 C-29.54811063 36.00074404 -30.77422561 39.18774576 -32 42.375 C-32.83136305 44.52174327 -33.66338752 46.66823051 -34.49609375 48.81445312 C-36.32959219 53.54235568 -38.1566853 58.27267752 -39.97805786 63.00526428 C-40.92744065 65.44739492 -41.90189053 67.87972634 -42.875 70.3125 C-47.165 70.3125 -51.455 70.3125 -55.875 70.3125 C-53.62661901 63.3476514 -51.07878539 56.54523402 -48.3828125 49.7421875 C-47.95499481 48.6617215 -47.52717712 47.58125549 -47.08639526 46.4680481 C-46.18523495 44.19669075 -45.28255032 41.92593765 -44.37841797 39.65576172 C-43.00275456 36.19443079 -41.64005637 32.72816503 -40.27734375 29.26171875 C-39.39663313 27.04655685 -38.51514875 24.83170239 -37.6328125 22.6171875 C-37.2305545 21.58786102 -36.82829651 20.55853455 -36.41384888 19.49801636 C-33.50968471 12.27053543 -30.58017167 5.08999104 -23.25 1.4375 C-22.49460937 1.04820313 -21.73921875 0.65890625 -20.9609375 0.2578125 C-14.24886954 -2.78398609 -6.80911705 -2.83332387 0 0 Z " fill="#000000" transform="translate(299.875,36.6875)"/>
<path d="M0 0 C3.63 0 7.26 0 11 0 C11 23.76 11 47.52 11 72 C7.37 72 3.74 72 0 72 C0 48.24 0 24.48 0 0 Z " fill="#000000" transform="translate(592,35)"/>
<path d="M0 0 C0.99 0.66 1.98 1.32 3 2 C3 2.66 3 3.32 3 4 C2.34 4 1.68 4 1 4 C1 4.99 1 5.98 1 7 C-0.32 7 -1.64 7 -3 7 C-1.125 1.125 -1.125 1.125 0 0 Z " fill="#6448E8" transform="translate(87,27)"/>
</svg>
